# xmcd
# Track frame offsets:
# 183
# 17618
# 33033
# 45123
# 64970
# 84970
# 99288
# 112813
# 133783
# 145703
# 162348
# 191833
#
# Disc length: 2800 seconds
# Revision: 1
# Processed by: cddbd v1.4PL0 Copyright (c) Steve Scherf et al.
# Submitted via: VisiTrax 2.9.5.181 - For more info visit www.synapsa.com
#
DISCID=8b0aee0c
DTITLE=Neil Diamond - The Very Best Of Neil Diamond Volume 1
DYEAR=1986
DGENRE=Blues
TTITLE0=Longfellow Serenade
TTITLE1=Forever In Blue Jeans
TTITLE2=Red Red Wine
TTITLE3=Primitive
TTITLE4=Heartlight
TTITLE5=You Don't Bring Me Flowers
TTITLE6=Let Me Take You In My Arms Again
TTITLE7=Holly Holy
TTITLE8=I'm A Believer
TTITLE9=If You Know What I Mean
TTITLE10=Be
TTITLE11=Sweet Caroline
EXTD=
EXTT0=
EXTT1=
EXTT2=
EXTT3=
EXTT4=
EXTT5=
EXTT6=
EXTT7=
EXTT8=
EXTT9=
EXTT10=
EXTT11=
PLAYORDER=
